<svg width="128" height="128" viewBox="0 0 128 128" xmlns="http://www.w3.org/2000/svg">
  <!-- Gradient definitions -->
  <defs>
    <linearGradient id="bgGradient" x1="0%" y1="0%" x2="100%" y2="100%">
      <stop offset="0%" stop-color="#2D3748" />
      <stop offset="100%" stop-color="#1A202C" />
    </linearGradient>
    <linearGradient id="cpuGradient" x1="0%" y1="0%" x2="100%" y2="100%">
      <stop offset="0%" stop-color="#4299E1" />
      <stop offset="100%" stop-color="#3182CE" />
    </linearGradient>
    <linearGradient id="graphGradient" x1="0%" y1="100%" x2="0%" y2="0%">
      <stop offset="0%" stop-color="#48BB78" />
      <stop offset="100%" stop-color="#38A169" />
    </linearGradient>
    <linearGradient id="memoryGradient" x1="0%" y1="0%" x2="100%" y2="0%">
      <stop offset="0%" stop-color="#ED8936" />
      <stop offset="100%" stop-color="#DD6B20" />
    </linearGradient>
    <filter id="glow" x="-20%" y="-20%" width="140%" height="140%">
      <feGaussianBlur stdDeviation="2" result="blur" />
      <feComposite in="SourceGraphic" in2="blur" operator="over" />
    </filter>
    <!-- For light/dark mode compatibility -->
    <filter id="contrastOutline" x="-10%" y="-10%" width="120%" height="120%">
      <feMorphology operator="dilate" radius="0.5" in="SourceAlpha" result="dilated"/>
      <feFlood flood-color="#000000" flood-opacity="0.5" result="black"/>
      <feFlood flood-color="#FFFFFF" flood-opacity="0.5" result="white"/>
      <feComposite in="black" in2="dilated" operator="in" result="blackOutline"/>
      <feComposite in="white" in2="dilated" operator="in" result="whiteOutline"/>
      <feComposite in="whiteOutline" in2="blackOutline" operator="over" result="outlines"/>
      <feComposite in="SourceGraphic" in2="outlines" operator="over"/>
    </filter>
  </defs>
  
  <!-- Full-bleed background with rounded corners -->
  <rect x="0" y="0" width="128" height="128" rx="8" ry="8" fill="url(#bgGradient)" stroke="none" />
  
  <!-- Outer frame with dual-compatibility outline -->
  <rect x="8" y="8" width="112" height="112" rx="6" ry="6" fill="none" stroke="#4A5568" stroke-width="2" filter="url(#contrastOutline)" />
  
  <!-- CPU chip with pulsing effect -->
  <rect x="16" y="16" width="45" height="45" rx="4" ry="4" fill="url(#cpuGradient)" stroke="#4A5568" stroke-width="1.5" filter="url(#contrastOutline)" />
  
  <!-- CPU circuit lines -->
  <line x1="16" y1="28" x2="61" y2="28" stroke="#E2E8F0" stroke-width="1" />
  <line x1="16" y1="39" x2="61" y2="39" stroke="#E2E8F0" stroke-width="1" />
  <line x1="16" y1="50" x2="61" y2="50" stroke="#E2E8F0" stroke-width="1" />
  <line x1="28" y1="16" x2="28" y2="61" stroke="#E2E8F0" stroke-width="1" />
  <line x1="39" y1="16" x2="39" y2="61" stroke="#E2E8F0" stroke-width="1" />
  <line x1="50" y1="16" x2="50" y2="61" stroke="#E2E8F0" stroke-width="1" />
  
  <!-- CPU glow indicators -->
  <circle cx="22" cy="22" r="3" fill="#90CDF4" filter="url(#glow)" />
  <circle cx="55" cy="22" r="3" fill="#90CDF4" filter="url(#glow)" />
  <circle cx="22" cy="55" r="3" fill="#90CDF4" filter="url(#glow)" />
  <circle cx="55" cy="55" r="3" fill="#90CDF4" filter="url(#glow)" />
  
  <!-- Resource graph area -->
  <rect x="67" y="16" width="45" height="45" rx="4" ry="4" fill="#2D3748" stroke="#4A5568" stroke-width="1.5" filter="url(#contrastOutline)" />
  
  <!-- Graph grid lines -->
  <line x1="67" y1="28" x2="112" y2="28" stroke="#4A5568" stroke-width="0.8" />
  <line x1="67" y1="39" x2="112" y2="39" stroke="#4A5568" stroke-width="0.8" />
  <line x1="67" y1="50" x2="112" y2="50" stroke="#4A5568" stroke-width="0.8" />
  <line x1="78" y1="16" x2="78" y2="61" stroke="#4A5568" stroke-width="0.8" />
  <line x1="89" y1="16" x2="89" y2="61" stroke="#4A5568" stroke-width="0.8" />
  <line x1="100" y1="16" x2="100" y2="61" stroke="#4A5568" stroke-width="0.8" />
  
  <!-- CPU usage graph -->
  <polyline 
    points="67,50 72,45 78,48 84,35 89,40 94,25 100,30 106,22 112,26" 
    fill="none" 
    stroke="url(#graphGradient)" 
    stroke-width="3" 
    stroke-linecap="round" 
    stroke-linejoin="round"
    filter="url(#glow)" />
  
  <!-- Memory bar indicators -->
  <rect x="16" y="71" width="96" height="8" rx="2" ry="2" fill="#2D3748" stroke="#4A5568" stroke-width="1" />
  <rect x="16" y="71" width="71" height="8" rx="2" ry="2" fill="url(#memoryGradient)" />
  
  <rect x="16" y="86" width="96" height="8" rx="2" ry="2" fill="#2D3748" stroke="#4A5568" stroke-width="1" />
  <rect x="16" y="86" width="45" height="8" rx="2" ry="2" fill="#9F7AEA" />
  
  <!-- Network activity indicators -->
  <circle cx="22" cy="105" r="4" fill="#F56565" filter="url(#glow)" />
  <circle cx="37" cy="105" r="4" fill="#ECC94B" filter="url(#glow)" />
  <circle cx="52" cy="105" r="4" fill="#48BB78" filter="url(#glow)" />
  
  <!-- Digital data indicators -->
  <rect x="67" y="101" width="8" height="8" fill="#4299E1" filter="url(#glow)" />
  <rect x="80" y="101" width="8" height="8" fill="#4299E1" filter="url(#glow)" />
  <rect x="93" y="101" width="8" height="8" fill="#4299E1" filter="url(#glow)" />
  <rect x="106" y="101" width="8" height="8" fill="#4299E1" filter="url(#glow)" />
</svg>
