<svg xmlns="http://www.w3.org/2000/svg" viewBox="0 0 512 512" width="48" height="48">
    <path fill="green" d="M160 352h192V160H160V352zM448 176h48C504.8 176 512 168.8 512 160s-7.162-16-16-16H448V128c0-35.35-28.65-64-64-64h-16V16c0-8.836-7.164-16-16-16s-16 7.164-16 16v48h-64V16c0-8.836-7.164-16-16-16S240 7.164 240 16v48h-64V16c0-8.836-7.164-16-16-16S144 7.164 144 16v48H128C92.65 64 64 92.65 64 128v16H16C7.164 144 0 151.2 0 160s7.164 16 16 16h48v64H16C7.164 240 0 247.2 0 256s7.164 16 16 16h48v64H16C7.164 336 0 343.2 0 352s7.164 16 16 16h48v16c0 35.35 28.65 64 64 64h16v48c0 8.836 7.164 16 16 16s16-7.164 16-16v-48h64v48c0 8.836 7.164 16 16 16s16-7.164 16-16v-48h64v48c0 8.836 7.164 16 16 16s16-7.164 16-16v-48h16c35.35 0 64-28.65 64-64v-16h48c8.838 0 16-7.164 16-16s-7.162-16-16-16H448v-64h48c8.838 0 16-7.164 16-16s-7.162-16-16-16H448V176zM384 368c0 8.836-7.162 16-16 16h-224c-8.836 0-16-7.164-16-16v-224c0-8.836 7.164-16 16-16h224c8.838 0 16 7.164 16 16V368z" />
</svg>
